<mxfile host="app.diagrams.net" modified="2021-03-14T19:54:52.154Z" agent="5.0 (Windows NT 10.0; Win64; x64) AppleWebKit/537.36 (KHTML, like Gecko) Chrome/88.0.4324.182 Safari/537.36 OPR/74.0.3911.203" etag="LlmZOfnFnsMKjXgXUuc6" version="14.4.8" type="github">
  <diagram id="JyT0F6hxIeADFvEnfZUK" name="Page-1">
    <mxGraphModel dx="1979" dy="1806" grid="1" gridSize="10" guides="1" tooltips="1" connect="1" arrows="1" fold="1" page="1" pageScale="1" pageWidth="827" pageHeight="1169" math="0" shadow="0">
      <root>
        <mxCell id="0" />
        <mxCell id="1" parent="0" />
        <mxCell id="auzOqSTc4CJLRQck3vAb-1" value="Pieges" style="ellipse;whiteSpace=wrap;html=1;" vertex="1" parent="1">
          <mxGeometry x="390" y="230" width="160" height="90" as="geometry" />
        </mxCell>
        <mxCell id="auzOqSTc4CJLRQck3vAb-3" value="Zombie" style="rounded=0;whiteSpace=wrap;html=1;" vertex="1" parent="1">
          <mxGeometry x="70" y="670" width="120" height="60" as="geometry" />
        </mxCell>
        <mxCell id="auzOqSTc4CJLRQck3vAb-4" value="Piège-Ours" style="rounded=0;whiteSpace=wrap;html=1;" vertex="1" parent="1">
          <mxGeometry x="230" y="670" width="120" height="60" as="geometry" />
        </mxCell>
        <mxCell id="auzOqSTc4CJLRQck3vAb-5" value="Piques" style="rounded=0;whiteSpace=wrap;html=1;" vertex="1" parent="1">
          <mxGeometry x="390" y="670" width="120" height="60" as="geometry" />
        </mxCell>
        <mxCell id="auzOqSTc4CJLRQck3vAb-6" value="Fantôme" style="rounded=0;whiteSpace=wrap;html=1;" vertex="1" parent="1">
          <mxGeometry x="570" y="670" width="120" height="60" as="geometry" />
        </mxCell>
        <mxCell id="auzOqSTc4CJLRQck3vAb-7" value="Sphinx" style="rounded=0;whiteSpace=wrap;html=1;" vertex="1" parent="1">
          <mxGeometry x="740" y="670" width="120" height="60" as="geometry" />
        </mxCell>
        <mxCell id="auzOqSTc4CJLRQck3vAb-9" value="Enemi Objet" style="ellipse;whiteSpace=wrap;html=1;" vertex="1" parent="1">
          <mxGeometry x="230" y="360" width="120" height="80" as="geometry" />
        </mxCell>
        <mxCell id="auzOqSTc4CJLRQck3vAb-10" value="Enemi enigme" style="ellipse;whiteSpace=wrap;html=1;" vertex="1" parent="1">
          <mxGeometry x="570" y="360" width="120" height="80" as="geometry" />
        </mxCell>
        <mxCell id="auzOqSTc4CJLRQck3vAb-11" value="" style="endArrow=none;html=1;entryX=0;entryY=1;entryDx=0;entryDy=0;exitX=0.5;exitY=0;exitDx=0;exitDy=0;" edge="1" parent="1" source="auzOqSTc4CJLRQck3vAb-9" target="auzOqSTc4CJLRQck3vAb-1">
          <mxGeometry width="50" height="50" relative="1" as="geometry">
            <mxPoint x="340" y="350" as="sourcePoint" />
            <mxPoint x="390" y="300" as="targetPoint" />
          </mxGeometry>
        </mxCell>
        <mxCell id="auzOqSTc4CJLRQck3vAb-12" value="" style="endArrow=none;html=1;entryX=0.5;entryY=0;entryDx=0;entryDy=0;exitX=1;exitY=1;exitDx=0;exitDy=0;" edge="1" parent="1" source="auzOqSTc4CJLRQck3vAb-1" target="auzOqSTc4CJLRQck3vAb-10">
          <mxGeometry width="50" height="50" relative="1" as="geometry">
            <mxPoint x="580" y="320" as="sourcePoint" />
            <mxPoint x="630" y="270" as="targetPoint" />
          </mxGeometry>
        </mxCell>
        <mxCell id="auzOqSTc4CJLRQck3vAb-14" value="" style="endArrow=none;html=1;entryX=0;entryY=1;entryDx=0;entryDy=0;exitX=0.5;exitY=0;exitDx=0;exitDy=0;" edge="1" parent="1" source="auzOqSTc4CJLRQck3vAb-3" target="auzOqSTc4CJLRQck3vAb-9">
          <mxGeometry width="50" height="50" relative="1" as="geometry">
            <mxPoint x="90" y="570" as="sourcePoint" />
            <mxPoint x="140" y="520" as="targetPoint" />
          </mxGeometry>
        </mxCell>
        <mxCell id="auzOqSTc4CJLRQck3vAb-15" value="" style="endArrow=none;html=1;entryX=0.5;entryY=1;entryDx=0;entryDy=0;exitX=0.5;exitY=0;exitDx=0;exitDy=0;" edge="1" parent="1" source="auzOqSTc4CJLRQck3vAb-4" target="auzOqSTc4CJLRQck3vAb-9">
          <mxGeometry width="50" height="50" relative="1" as="geometry">
            <mxPoint x="240" y="585" as="sourcePoint" />
            <mxPoint x="290" y="535" as="targetPoint" />
          </mxGeometry>
        </mxCell>
        <mxCell id="auzOqSTc4CJLRQck3vAb-16" value="" style="endArrow=none;html=1;entryX=1;entryY=1;entryDx=0;entryDy=0;exitX=0.5;exitY=0;exitDx=0;exitDy=0;" edge="1" parent="1" source="auzOqSTc4CJLRQck3vAb-5" target="auzOqSTc4CJLRQck3vAb-9">
          <mxGeometry width="50" height="50" relative="1" as="geometry">
            <mxPoint x="410" y="570" as="sourcePoint" />
            <mxPoint x="460" y="520" as="targetPoint" />
          </mxGeometry>
        </mxCell>
        <mxCell id="auzOqSTc4CJLRQck3vAb-17" value="" style="endArrow=none;html=1;entryX=0.5;entryY=1;entryDx=0;entryDy=0;exitX=0.5;exitY=0;exitDx=0;exitDy=0;" edge="1" parent="1" source="auzOqSTc4CJLRQck3vAb-6" target="auzOqSTc4CJLRQck3vAb-10">
          <mxGeometry width="50" height="50" relative="1" as="geometry">
            <mxPoint x="680" y="600" as="sourcePoint" />
            <mxPoint x="730" y="550" as="targetPoint" />
          </mxGeometry>
        </mxCell>
        <mxCell id="auzOqSTc4CJLRQck3vAb-18" value="" style="endArrow=none;html=1;entryX=0.941;entryY=0.722;entryDx=0;entryDy=0;entryPerimeter=0;exitX=0.5;exitY=0;exitDx=0;exitDy=0;" edge="1" parent="1" source="auzOqSTc4CJLRQck3vAb-7" target="auzOqSTc4CJLRQck3vAb-10">
          <mxGeometry width="50" height="50" relative="1" as="geometry">
            <mxPoint x="780" y="600" as="sourcePoint" />
            <mxPoint x="830" y="550" as="targetPoint" />
          </mxGeometry>
        </mxCell>
        <mxCell id="auzOqSTc4CJLRQck3vAb-20" value="Enemi follower" style="ellipse;whiteSpace=wrap;html=1;" vertex="1" parent="1">
          <mxGeometry x="-100" y="360" width="120" height="80" as="geometry" />
        </mxCell>
        <mxCell id="auzOqSTc4CJLRQck3vAb-21" value="" style="endArrow=none;html=1;entryX=0.5;entryY=1;entryDx=0;entryDy=0;exitX=0.5;exitY=0;exitDx=0;exitDy=0;" edge="1" parent="1" source="auzOqSTc4CJLRQck3vAb-22" target="auzOqSTc4CJLRQck3vAb-20">
          <mxGeometry width="50" height="50" relative="1" as="geometry">
            <mxPoint x="-70" y="670" as="sourcePoint" />
            <mxPoint x="100" y="440" as="targetPoint" />
            <Array as="points" />
          </mxGeometry>
        </mxCell>
        <mxCell id="auzOqSTc4CJLRQck3vAb-22" value="?" style="rounded=0;whiteSpace=wrap;html=1;" vertex="1" parent="1">
          <mxGeometry x="-100" y="670" width="120" height="60" as="geometry" />
        </mxCell>
        <mxCell id="auzOqSTc4CJLRQck3vAb-24" value="" style="endArrow=none;dashed=1;html=1;dashPattern=1 3;strokeWidth=2;entryX=0;entryY=0.5;entryDx=0;entryDy=0;exitX=0.5;exitY=0;exitDx=0;exitDy=0;" edge="1" parent="1" source="auzOqSTc4CJLRQck3vAb-20" target="auzOqSTc4CJLRQck3vAb-1">
          <mxGeometry width="50" height="50" relative="1" as="geometry">
            <mxPoint x="130" y="360" as="sourcePoint" />
            <mxPoint x="180" y="310" as="targetPoint" />
          </mxGeometry>
        </mxCell>
        <mxCell id="auzOqSTc4CJLRQck3vAb-27" value="Objet" style="ellipse;whiteSpace=wrap;html=1;" vertex="1" parent="1">
          <mxGeometry x="1280" y="230" width="160" height="90" as="geometry" />
        </mxCell>
        <mxCell id="auzOqSTc4CJLRQck3vAb-28" value="" style="endArrow=none;html=1;entryX=0;entryY=0.5;entryDx=0;entryDy=0;exitX=0.5;exitY=0;exitDx=0;exitDy=0;" edge="1" parent="1" source="auzOqSTc4CJLRQck3vAb-30" target="auzOqSTc4CJLRQck3vAb-27">
          <mxGeometry width="50" height="50" relative="1" as="geometry">
            <mxPoint x="1200" y="390" as="sourcePoint" />
            <mxPoint x="1300" y="300" as="targetPoint" />
            <Array as="points" />
          </mxGeometry>
        </mxCell>
        <mxCell id="auzOqSTc4CJLRQck3vAb-29" value="" style="endArrow=none;html=1;exitX=0.5;exitY=1;exitDx=0;exitDy=0;entryX=0.5;entryY=0;entryDx=0;entryDy=0;" edge="1" parent="1" source="auzOqSTc4CJLRQck3vAb-27" target="auzOqSTc4CJLRQck3vAb-31">
          <mxGeometry width="50" height="50" relative="1" as="geometry">
            <mxPoint x="1419.9985424949236" y="306.81980515339455" as="sourcePoint" />
            <mxPoint x="1500" y="390" as="targetPoint" />
          </mxGeometry>
        </mxCell>
        <mxCell id="auzOqSTc4CJLRQck3vAb-30" value="Clé" style="ellipse;whiteSpace=wrap;html=1;" vertex="1" parent="1">
          <mxGeometry x="990" y="380" width="120" height="80" as="geometry" />
        </mxCell>
        <mxCell id="auzOqSTc4CJLRQck3vAb-31" value="Objet soin" style="ellipse;whiteSpace=wrap;html=1;" vertex="1" parent="1">
          <mxGeometry x="1300" y="390" width="120" height="80" as="geometry" />
        </mxCell>
        <mxCell id="auzOqSTc4CJLRQck3vAb-32" value="" style="endArrow=none;html=1;entryX=1;entryY=0.5;entryDx=0;entryDy=0;exitX=0.5;exitY=0;exitDx=0;exitDy=0;" edge="1" parent="1" source="auzOqSTc4CJLRQck3vAb-33" target="auzOqSTc4CJLRQck3vAb-27">
          <mxGeometry width="50" height="50" relative="1" as="geometry">
            <mxPoint x="1740" y="400" as="sourcePoint" />
            <mxPoint x="1650" y="310" as="targetPoint" />
          </mxGeometry>
        </mxCell>
        <mxCell id="auzOqSTc4CJLRQck3vAb-33" value="objet defensifs" style="ellipse;whiteSpace=wrap;html=1;" vertex="1" parent="1">
          <mxGeometry x="1470" y="390" width="120" height="80" as="geometry" />
        </mxCell>
        <mxCell id="auzOqSTc4CJLRQck3vAb-34" value="" style="endArrow=none;html=1;exitX=1;exitY=0.5;exitDx=0;exitDy=0;entryX=0.5;entryY=0;entryDx=0;entryDy=0;" edge="1" parent="1" source="auzOqSTc4CJLRQck3vAb-27" target="auzOqSTc4CJLRQck3vAb-35">
          <mxGeometry width="50" height="50" relative="1" as="geometry">
            <mxPoint x="1570" y="320" as="sourcePoint" />
            <mxPoint x="1620" y="270" as="targetPoint" />
          </mxGeometry>
        </mxCell>
        <mxCell id="auzOqSTc4CJLRQck3vAb-35" value="Aide" style="ellipse;whiteSpace=wrap;html=1;" vertex="1" parent="1">
          <mxGeometry x="1640" y="390" width="120" height="80" as="geometry" />
        </mxCell>
        <mxCell id="auzOqSTc4CJLRQck3vAb-36" value="" style="endArrow=none;html=1;entryX=0;entryY=1;entryDx=0;entryDy=0;" edge="1" parent="1" source="auzOqSTc4CJLRQck3vAb-42" target="auzOqSTc4CJLRQck3vAb-30">
          <mxGeometry width="50" height="50" relative="1" as="geometry">
            <mxPoint x="1100" y="580" as="sourcePoint" />
            <mxPoint x="1160" y="460" as="targetPoint" />
          </mxGeometry>
        </mxCell>
        <mxCell id="auzOqSTc4CJLRQck3vAb-37" value="" style="endArrow=none;html=1;entryX=0.5;entryY=1;entryDx=0;entryDy=0;exitX=0.5;exitY=0;exitDx=0;exitDy=0;" edge="1" parent="1" source="auzOqSTc4CJLRQck3vAb-43" target="auzOqSTc4CJLRQck3vAb-31">
          <mxGeometry width="50" height="50" relative="1" as="geometry">
            <mxPoint x="1270" y="590" as="sourcePoint" />
            <mxPoint x="1350" y="470" as="targetPoint" />
          </mxGeometry>
        </mxCell>
        <mxCell id="auzOqSTc4CJLRQck3vAb-38" value="" style="endArrow=none;html=1;entryX=0.5;entryY=1;entryDx=0;entryDy=0;exitX=0.5;exitY=0;exitDx=0;exitDy=0;" edge="1" parent="1" source="auzOqSTc4CJLRQck3vAb-44" target="auzOqSTc4CJLRQck3vAb-31">
          <mxGeometry width="50" height="50" relative="1" as="geometry">
            <mxPoint x="1430" y="590" as="sourcePoint" />
            <mxPoint x="1400" y="500" as="targetPoint" />
          </mxGeometry>
        </mxCell>
        <mxCell id="auzOqSTc4CJLRQck3vAb-39" value="" style="endArrow=none;html=1;entryX=0.5;entryY=1;entryDx=0;entryDy=0;exitX=0.5;exitY=0;exitDx=0;exitDy=0;" edge="1" parent="1" source="auzOqSTc4CJLRQck3vAb-45" target="auzOqSTc4CJLRQck3vAb-33">
          <mxGeometry width="50" height="50" relative="1" as="geometry">
            <mxPoint x="1530" y="580" as="sourcePoint" />
            <mxPoint x="1540" y="500" as="targetPoint" />
          </mxGeometry>
        </mxCell>
        <mxCell id="auzOqSTc4CJLRQck3vAb-40" value="" style="endArrow=none;html=1;entryX=0;entryY=1;entryDx=0;entryDy=0;exitX=0.5;exitY=0;exitDx=0;exitDy=0;" edge="1" parent="1" source="auzOqSTc4CJLRQck3vAb-47" target="auzOqSTc4CJLRQck3vAb-35">
          <mxGeometry width="50" height="50" relative="1" as="geometry">
            <mxPoint x="1640" y="590" as="sourcePoint" />
            <mxPoint x="1690" y="470" as="targetPoint" />
          </mxGeometry>
        </mxCell>
        <mxCell id="auzOqSTc4CJLRQck3vAb-41" value="" style="endArrow=none;html=1;entryX=1;entryY=1;entryDx=0;entryDy=0;exitX=0.5;exitY=0;exitDx=0;exitDy=0;" edge="1" parent="1" source="auzOqSTc4CJLRQck3vAb-46" target="auzOqSTc4CJLRQck3vAb-35">
          <mxGeometry width="50" height="50" relative="1" as="geometry">
            <mxPoint x="1800" y="590" as="sourcePoint" />
            <mxPoint x="1810" y="510" as="targetPoint" />
          </mxGeometry>
        </mxCell>
        <mxCell id="auzOqSTc4CJLRQck3vAb-42" value="Clé bleue" style="ellipse;whiteSpace=wrap;html=1;" vertex="1" parent="1">
          <mxGeometry x="860" y="570" width="120" height="80" as="geometry" />
        </mxCell>
        <mxCell id="auzOqSTc4CJLRQck3vAb-43" value="" style="ellipse;whiteSpace=wrap;html=1;" vertex="1" parent="1">
          <mxGeometry x="1150" y="585" width="120" height="80" as="geometry" />
        </mxCell>
        <mxCell id="auzOqSTc4CJLRQck3vAb-44" value="" style="ellipse;whiteSpace=wrap;html=1;" vertex="1" parent="1">
          <mxGeometry x="1310" y="590" width="120" height="80" as="geometry" />
        </mxCell>
        <mxCell id="auzOqSTc4CJLRQck3vAb-45" value="" style="ellipse;whiteSpace=wrap;html=1;" vertex="1" parent="1">
          <mxGeometry x="1350" y="770" width="120" height="80" as="geometry" />
        </mxCell>
        <mxCell id="auzOqSTc4CJLRQck3vAb-46" value="" style="ellipse;whiteSpace=wrap;html=1;" vertex="1" parent="1">
          <mxGeometry x="1790" y="590" width="120" height="80" as="geometry" />
        </mxCell>
        <mxCell id="auzOqSTc4CJLRQck3vAb-47" value="" style="ellipse;whiteSpace=wrap;html=1;" vertex="1" parent="1">
          <mxGeometry x="1590" y="590" width="120" height="80" as="geometry" />
        </mxCell>
        <mxCell id="auzOqSTc4CJLRQck3vAb-48" value="" style="endArrow=none;html=1;entryX=0.5;entryY=1;entryDx=0;entryDy=0;" edge="1" parent="1" target="auzOqSTc4CJLRQck3vAb-33">
          <mxGeometry width="50" height="50" relative="1" as="geometry">
            <mxPoint x="1600" y="780" as="sourcePoint" />
            <mxPoint x="1580" y="560" as="targetPoint" />
          </mxGeometry>
        </mxCell>
        <mxCell id="auzOqSTc4CJLRQck3vAb-49" value="" style="ellipse;whiteSpace=wrap;html=1;" vertex="1" parent="1">
          <mxGeometry x="1540" y="770" width="120" height="80" as="geometry" />
        </mxCell>
        <mxCell id="auzOqSTc4CJLRQck3vAb-51" value="clé&amp;nbsp;" style="ellipse;whiteSpace=wrap;html=1;" vertex="1" parent="1">
          <mxGeometry x="1020" y="570" width="120" height="80" as="geometry" />
        </mxCell>
        <mxCell id="auzOqSTc4CJLRQck3vAb-52" value="" style="endArrow=none;html=1;entryX=1;entryY=1;entryDx=0;entryDy=0;exitX=0.5;exitY=0;exitDx=0;exitDy=0;" edge="1" parent="1" source="auzOqSTc4CJLRQck3vAb-51" target="auzOqSTc4CJLRQck3vAb-30">
          <mxGeometry width="50" height="50" relative="1" as="geometry">
            <mxPoint x="1270" y="590" as="sourcePoint" />
            <mxPoint x="1320" y="540" as="targetPoint" />
          </mxGeometry>
        </mxCell>
        <mxCell id="auzOqSTc4CJLRQck3vAb-53" value="Fog of war" style="swimlane;fontStyle=0;childLayout=stackLayout;horizontal=1;startSize=26;fillColor=none;horizontalStack=0;resizeParent=1;resizeParentMax=0;resizeLast=0;collapsible=1;marginBottom=0;" vertex="1" parent="1">
          <mxGeometry x="150" y="-460" width="180" height="104" as="geometry" />
        </mxCell>
        <mxCell id="auzOqSTc4CJLRQck3vAb-54" value="Distance visibilité" style="text;strokeColor=none;fillColor=none;align=left;verticalAlign=top;spacingLeft=4;spacingRight=4;overflow=hidden;rotatable=0;points=[[0,0.5],[1,0.5]];portConstraint=eastwest;" vertex="1" parent="auzOqSTc4CJLRQck3vAb-53">
          <mxGeometry y="26" width="180" height="26" as="geometry" />
        </mxCell>
        <mxCell id="auzOqSTc4CJLRQck3vAb-55" value="rayon : 2 ou 3 cases" style="text;strokeColor=none;fillColor=none;align=left;verticalAlign=top;spacingLeft=4;spacingRight=4;overflow=hidden;rotatable=0;points=[[0,0.5],[1,0.5]];portConstraint=eastwest;" vertex="1" parent="auzOqSTc4CJLRQck3vAb-53">
          <mxGeometry y="52" width="180" height="26" as="geometry" />
        </mxCell>
        <mxCell id="auzOqSTc4CJLRQck3vAb-56" value="Bloqué par les murs/portes" style="text;strokeColor=none;fillColor=none;align=left;verticalAlign=top;spacingLeft=4;spacingRight=4;overflow=hidden;rotatable=0;points=[[0,0.5],[1,0.5]];portConstraint=eastwest;" vertex="1" parent="auzOqSTc4CJLRQck3vAb-53">
          <mxGeometry y="78" width="180" height="26" as="geometry" />
        </mxCell>
        <mxCell id="auzOqSTc4CJLRQck3vAb-57" value="Avatar" style="swimlane;fontStyle=0;childLayout=stackLayout;horizontal=1;startSize=26;fillColor=none;horizontalStack=0;resizeParent=1;resizeParentMax=0;resizeLast=0;collapsible=1;marginBottom=0;" vertex="1" parent="1">
          <mxGeometry x="820" y="-460" width="140" height="104" as="geometry" />
        </mxCell>
        <mxCell id="auzOqSTc4CJLRQck3vAb-58" value="Personnalisation" style="text;strokeColor=none;fillColor=none;align=left;verticalAlign=top;spacingLeft=4;spacingRight=4;overflow=hidden;rotatable=0;points=[[0,0.5],[1,0.5]];portConstraint=eastwest;" vertex="1" parent="auzOqSTc4CJLRQck3vAb-57">
          <mxGeometry y="26" width="140" height="26" as="geometry" />
        </mxCell>
        <mxCell id="auzOqSTc4CJLRQck3vAb-59" value="Animation?" style="text;strokeColor=none;fillColor=none;align=left;verticalAlign=top;spacingLeft=4;spacingRight=4;overflow=hidden;rotatable=0;points=[[0,0.5],[1,0.5]];portConstraint=eastwest;" vertex="1" parent="auzOqSTc4CJLRQck3vAb-57">
          <mxGeometry y="52" width="140" height="26" as="geometry" />
        </mxCell>
        <mxCell id="auzOqSTc4CJLRQck3vAb-60" value="Etat evolutif ?" style="text;strokeColor=none;fillColor=none;align=left;verticalAlign=top;spacingLeft=4;spacingRight=4;overflow=hidden;rotatable=0;points=[[0,0.5],[1,0.5]];portConstraint=eastwest;" vertex="1" parent="auzOqSTc4CJLRQck3vAb-57">
          <mxGeometry y="78" width="140" height="26" as="geometry" />
        </mxCell>
        <mxCell id="auzOqSTc4CJLRQck3vAb-70" value="" style="whiteSpace=wrap;html=1;aspect=fixed;" vertex="1" parent="1">
          <mxGeometry x="200" y="-20" width="80" height="80" as="geometry" />
        </mxCell>
        <mxCell id="auzOqSTc4CJLRQck3vAb-76" value="" style="whiteSpace=wrap;html=1;aspect=fixed;" vertex="1" parent="1">
          <mxGeometry x="200" y="-180" width="80" height="80" as="geometry" />
        </mxCell>
        <mxCell id="auzOqSTc4CJLRQck3vAb-77" value="" style="whiteSpace=wrap;html=1;aspect=fixed;" vertex="1" parent="1">
          <mxGeometry x="120" y="-180" width="80" height="80" as="geometry" />
        </mxCell>
        <mxCell id="auzOqSTc4CJLRQck3vAb-78" value="" style="whiteSpace=wrap;html=1;aspect=fixed;" vertex="1" parent="1">
          <mxGeometry x="280" y="-180" width="80" height="80" as="geometry" />
        </mxCell>
        <mxCell id="auzOqSTc4CJLRQck3vAb-79" value="" style="whiteSpace=wrap;html=1;aspect=fixed;" vertex="1" parent="1">
          <mxGeometry x="200" y="-260" width="80" height="80" as="geometry" />
        </mxCell>
        <mxCell id="auzOqSTc4CJLRQck3vAb-80" value="" style="whiteSpace=wrap;html=1;aspect=fixed;" vertex="1" parent="1">
          <mxGeometry x="200" y="-100" width="80" height="80" as="geometry" />
        </mxCell>
        <mxCell id="auzOqSTc4CJLRQck3vAb-81" value="" style="whiteSpace=wrap;html=1;aspect=fixed;" vertex="1" parent="1">
          <mxGeometry x="40" y="-180" width="80" height="80" as="geometry" />
        </mxCell>
        <mxCell id="auzOqSTc4CJLRQck3vAb-82" value="" style="whiteSpace=wrap;html=1;aspect=fixed;" vertex="1" parent="1">
          <mxGeometry x="360" y="-180" width="80" height="80" as="geometry" />
        </mxCell>
        <mxCell id="auzOqSTc4CJLRQck3vAb-83" value="" style="whiteSpace=wrap;html=1;aspect=fixed;" vertex="1" parent="1">
          <mxGeometry x="200" y="-340" width="80" height="80" as="geometry" />
        </mxCell>
        <mxCell id="auzOqSTc4CJLRQck3vAb-84" value="" style="whiteSpace=wrap;html=1;aspect=fixed;" vertex="1" parent="1">
          <mxGeometry x="120" y="-100" width="80" height="80" as="geometry" />
        </mxCell>
        <mxCell id="auzOqSTc4CJLRQck3vAb-85" value="" style="whiteSpace=wrap;html=1;aspect=fixed;" vertex="1" parent="1">
          <mxGeometry x="120" y="-260" width="80" height="80" as="geometry" />
        </mxCell>
        <mxCell id="auzOqSTc4CJLRQck3vAb-86" value="" style="whiteSpace=wrap;html=1;aspect=fixed;" vertex="1" parent="1">
          <mxGeometry x="280" y="-260" width="80" height="80" as="geometry" />
        </mxCell>
        <mxCell id="auzOqSTc4CJLRQck3vAb-87" value="" style="whiteSpace=wrap;html=1;aspect=fixed;" vertex="1" parent="1">
          <mxGeometry x="280" y="-100" width="80" height="80" as="geometry" />
        </mxCell>
        <mxCell id="auzOqSTc4CJLRQck3vAb-88" value="Actor" style="shape=umlActor;verticalLabelPosition=bottom;verticalAlign=top;html=1;outlineConnect=0;" vertex="1" parent="1">
          <mxGeometry x="225" y="-170" width="30" height="60" as="geometry" />
        </mxCell>
        <mxCell id="auzOqSTc4CJLRQck3vAb-89" value="But" style="swimlane;fontStyle=0;childLayout=stackLayout;horizontal=1;startSize=26;fillColor=none;horizontalStack=0;resizeParent=1;resizeParentMax=0;resizeLast=0;collapsible=1;marginBottom=0;" vertex="1" parent="1">
          <mxGeometry x="1465" y="-837" width="270" height="104" as="geometry" />
        </mxCell>
        <mxCell id="auzOqSTc4CJLRQck3vAb-90" value="Atteindre la porte finale" style="text;strokeColor=none;fillColor=none;align=left;verticalAlign=top;spacingLeft=4;spacingRight=4;overflow=hidden;rotatable=0;points=[[0,0.5],[1,0.5]];portConstraint=eastwest;" vertex="1" parent="auzOqSTc4CJLRQck3vAb-89">
          <mxGeometry y="26" width="270" height="26" as="geometry" />
        </mxCell>
        <mxCell id="auzOqSTc4CJLRQck3vAb-91" value="minimum 1hp" style="text;strokeColor=none;fillColor=none;align=left;verticalAlign=top;spacingLeft=4;spacingRight=4;overflow=hidden;rotatable=0;points=[[0,0.5],[1,0.5]];portConstraint=eastwest;" vertex="1" parent="auzOqSTc4CJLRQck3vAb-89">
          <mxGeometry y="52" width="270" height="26" as="geometry" />
        </mxCell>
        <mxCell id="auzOqSTc4CJLRQck3vAb-149" value="Descendre dans l&#39;hotel via les escalier" style="text;strokeColor=none;fillColor=none;align=left;verticalAlign=top;spacingLeft=4;spacingRight=4;overflow=hidden;rotatable=0;points=[[0,0.5],[1,0.5]];portConstraint=eastwest;" vertex="1" parent="auzOqSTc4CJLRQck3vAb-89">
          <mxGeometry y="78" width="270" height="26" as="geometry" />
        </mxCell>
        <mxCell id="auzOqSTc4CJLRQck3vAb-93" value="Start" style="swimlane;fontStyle=0;childLayout=stackLayout;horizontal=1;startSize=26;fillColor=none;horizontalStack=0;resizeParent=1;resizeParentMax=0;resizeLast=0;collapsible=1;marginBottom=0;" vertex="1" parent="1">
          <mxGeometry x="2300" y="-850" width="140" height="110" as="geometry" />
        </mxCell>
        <mxCell id="auzOqSTc4CJLRQck3vAb-97" value="valeur  8" style="text;strokeColor=none;fillColor=none;align=left;verticalAlign=top;spacingLeft=4;spacingRight=4;overflow=hidden;rotatable=0;points=[[0,0.5],[1,0.5]];portConstraint=eastwest;" vertex="1" parent="auzOqSTc4CJLRQck3vAb-93">
          <mxGeometry y="26" width="140" height="26" as="geometry" />
        </mxCell>
        <mxCell id="auzOqSTc4CJLRQck3vAb-94" value="Lit/escalier" style="text;strokeColor=none;fillColor=none;align=left;verticalAlign=top;spacingLeft=4;spacingRight=4;overflow=hidden;rotatable=0;points=[[0,0.5],[1,0.5]];portConstraint=eastwest;" vertex="1" parent="auzOqSTc4CJLRQck3vAb-93">
          <mxGeometry y="52" width="140" height="32" as="geometry" />
        </mxCell>
        <mxCell id="auzOqSTc4CJLRQck3vAb-98" value="Inventaire : Note histoire" style="text;strokeColor=none;fillColor=none;align=left;verticalAlign=top;spacingLeft=4;spacingRight=4;overflow=hidden;rotatable=0;points=[[0,0.5],[1,0.5]];portConstraint=eastwest;" vertex="1" parent="auzOqSTc4CJLRQck3vAb-93">
          <mxGeometry y="84" width="140" height="26" as="geometry" />
        </mxCell>
        <mxCell id="auzOqSTc4CJLRQck3vAb-99" value="" style="endArrow=none;dashed=1;html=1;dashPattern=1 3;strokeWidth=2;entryX=0;entryY=0.5;entryDx=0;entryDy=0;" edge="1" parent="1" target="auzOqSTc4CJLRQck3vAb-94">
          <mxGeometry width="50" height="50" relative="1" as="geometry">
            <mxPoint x="2080" y="-782" as="sourcePoint" />
            <mxPoint x="1960" y="-850" as="targetPoint" />
          </mxGeometry>
        </mxCell>
        <mxCell id="auzOqSTc4CJLRQck3vAb-100" value="Trombone" style="swimlane;fontStyle=0;childLayout=stackLayout;horizontal=1;startSize=26;fillColor=none;horizontalStack=0;resizeParent=1;resizeParentMax=0;resizeLast=0;collapsible=1;marginBottom=0;" vertex="1" parent="1">
          <mxGeometry x="840" y="-290" width="200" height="104" as="geometry" />
        </mxCell>
        <mxCell id="auzOqSTc4CJLRQck3vAb-101" value="Pop de solution/ aide/histoire" style="text;strokeColor=none;fillColor=none;align=left;verticalAlign=top;spacingLeft=4;spacingRight=4;overflow=hidden;rotatable=0;points=[[0,0.5],[1,0.5]];portConstraint=eastwest;" vertex="1" parent="auzOqSTc4CJLRQck3vAb-100">
          <mxGeometry y="26" width="200" height="26" as="geometry" />
        </mxCell>
        <mxCell id="auzOqSTc4CJLRQck3vAb-102" value="+ field: type" style="text;strokeColor=none;fillColor=none;align=left;verticalAlign=top;spacingLeft=4;spacingRight=4;overflow=hidden;rotatable=0;points=[[0,0.5],[1,0.5]];portConstraint=eastwest;" vertex="1" parent="auzOqSTc4CJLRQck3vAb-100">
          <mxGeometry y="52" width="200" height="26" as="geometry" />
        </mxCell>
        <mxCell id="auzOqSTc4CJLRQck3vAb-103" value="+ field: type" style="text;strokeColor=none;fillColor=none;align=left;verticalAlign=top;spacingLeft=4;spacingRight=4;overflow=hidden;rotatable=0;points=[[0,0.5],[1,0.5]];portConstraint=eastwest;" vertex="1" parent="auzOqSTc4CJLRQck3vAb-100">
          <mxGeometry y="78" width="200" height="26" as="geometry" />
        </mxCell>
        <mxCell id="auzOqSTc4CJLRQck3vAb-104" value="Exploration" style="swimlane;fontStyle=0;childLayout=stackLayout;horizontal=1;startSize=26;fillColor=none;horizontalStack=0;resizeParent=1;resizeParentMax=0;resizeLast=0;collapsible=1;marginBottom=0;" vertex="1" parent="1">
          <mxGeometry x="1940" y="-837" width="140" height="156" as="geometry" />
        </mxCell>
        <mxCell id="auzOqSTc4CJLRQck3vAb-105" value="Pieges" style="text;strokeColor=none;fillColor=none;align=left;verticalAlign=top;spacingLeft=4;spacingRight=4;overflow=hidden;rotatable=0;points=[[0,0.5],[1,0.5]];portConstraint=eastwest;" vertex="1" parent="auzOqSTc4CJLRQck3vAb-104">
          <mxGeometry y="26" width="140" height="26" as="geometry" />
        </mxCell>
        <mxCell id="auzOqSTc4CJLRQck3vAb-106" value="Meubles" style="text;strokeColor=none;fillColor=none;align=left;verticalAlign=top;spacingLeft=4;spacingRight=4;overflow=hidden;rotatable=0;points=[[0,0.5],[1,0.5]];portConstraint=eastwest;" vertex="1" parent="auzOqSTc4CJLRQck3vAb-104">
          <mxGeometry y="52" width="140" height="26" as="geometry" />
        </mxCell>
        <mxCell id="auzOqSTc4CJLRQck3vAb-109" value="Escaliers" style="text;strokeColor=none;fillColor=none;align=left;verticalAlign=top;spacingLeft=4;spacingRight=4;overflow=hidden;rotatable=0;points=[[0,0.5],[1,0.5]];portConstraint=eastwest;" vertex="1" parent="auzOqSTc4CJLRQck3vAb-104">
          <mxGeometry y="78" width="140" height="26" as="geometry" />
        </mxCell>
        <mxCell id="auzOqSTc4CJLRQck3vAb-110" value="Mur" style="text;strokeColor=none;fillColor=none;align=left;verticalAlign=top;spacingLeft=4;spacingRight=4;overflow=hidden;rotatable=0;points=[[0,0.5],[1,0.5]];portConstraint=eastwest;" vertex="1" parent="auzOqSTc4CJLRQck3vAb-104">
          <mxGeometry y="104" width="140" height="26" as="geometry" />
        </mxCell>
        <mxCell id="auzOqSTc4CJLRQck3vAb-107" value="portes" style="text;strokeColor=none;fillColor=none;align=left;verticalAlign=top;spacingLeft=4;spacingRight=4;overflow=hidden;rotatable=0;points=[[0,0.5],[1,0.5]];portConstraint=eastwest;" vertex="1" parent="auzOqSTc4CJLRQck3vAb-104">
          <mxGeometry y="130" width="140" height="26" as="geometry" />
        </mxCell>
        <mxCell id="auzOqSTc4CJLRQck3vAb-111" value="" style="endArrow=none;dashed=1;html=1;" edge="1" parent="1" target="auzOqSTc4CJLRQck3vAb-115">
          <mxGeometry width="50" height="50" relative="1" as="geometry">
            <mxPoint x="2010" y="-840" as="sourcePoint" />
            <mxPoint x="2010" y="-980" as="targetPoint" />
          </mxGeometry>
        </mxCell>
        <mxCell id="auzOqSTc4CJLRQck3vAb-112" value="piege" style="swimlane;fontStyle=0;childLayout=stackLayout;horizontal=1;startSize=26;fillColor=none;horizontalStack=0;resizeParent=1;resizeParentMax=0;resizeLast=0;collapsible=1;marginBottom=0;" vertex="1" parent="1">
          <mxGeometry x="2160" y="-1080" width="310" height="104" as="geometry" />
        </mxCell>
        <mxCell id="auzOqSTc4CJLRQck3vAb-113" value="Objet / enigme" style="text;strokeColor=none;fillColor=none;align=left;verticalAlign=top;spacingLeft=4;spacingRight=4;overflow=hidden;rotatable=0;points=[[0,0.5],[1,0.5]];portConstraint=eastwest;" vertex="1" parent="auzOqSTc4CJLRQck3vAb-112">
          <mxGeometry y="26" width="310" height="26" as="geometry" />
        </mxCell>
        <mxCell id="auzOqSTc4CJLRQck3vAb-114" value="1 : Objet validé ou enigme validée = hp inchangés" style="text;strokeColor=none;fillColor=none;align=left;verticalAlign=top;spacingLeft=4;spacingRight=4;overflow=hidden;rotatable=0;points=[[0,0.5],[1,0.5]];portConstraint=eastwest;" vertex="1" parent="auzOqSTc4CJLRQck3vAb-112">
          <mxGeometry y="52" width="310" height="26" as="geometry" />
        </mxCell>
        <mxCell id="auzOqSTc4CJLRQck3vAb-115" value="2 :  PAs l&#39;objet ou enigme fausse = hp diminués" style="text;strokeColor=none;fillColor=none;align=left;verticalAlign=top;spacingLeft=4;spacingRight=4;overflow=hidden;rotatable=0;points=[[0,0.5],[1,0.5]];portConstraint=eastwest;" vertex="1" parent="auzOqSTc4CJLRQck3vAb-112">
          <mxGeometry y="78" width="310" height="26" as="geometry" />
        </mxCell>
        <mxCell id="auzOqSTc4CJLRQck3vAb-116" value="Meubles" style="swimlane;fontStyle=0;childLayout=stackLayout;horizontal=1;startSize=26;fillColor=none;horizontalStack=0;resizeParent=1;resizeParentMax=0;resizeLast=0;collapsible=1;marginBottom=0;" vertex="1" parent="1">
          <mxGeometry x="2100" y="-600" width="190" height="104" as="geometry" />
        </mxCell>
        <mxCell id="auzOqSTc4CJLRQck3vAb-117" value="Vide ou avec objet" style="text;strokeColor=none;fillColor=none;align=left;verticalAlign=top;spacingLeft=4;spacingRight=4;overflow=hidden;rotatable=0;points=[[0,0.5],[1,0.5]];portConstraint=eastwest;" vertex="1" parent="auzOqSTc4CJLRQck3vAb-116">
          <mxGeometry y="26" width="190" height="26" as="geometry" />
        </mxCell>
        <mxCell id="auzOqSTc4CJLRQck3vAb-118" value="Possibilité de stocker les objets" style="text;strokeColor=none;fillColor=none;align=left;verticalAlign=top;spacingLeft=4;spacingRight=4;overflow=hidden;rotatable=0;points=[[0,0.5],[1,0.5]];portConstraint=eastwest;" vertex="1" parent="auzOqSTc4CJLRQck3vAb-116">
          <mxGeometry y="52" width="190" height="26" as="geometry" />
        </mxCell>
        <mxCell id="auzOqSTc4CJLRQck3vAb-119" value="Peut être verrouillé" style="text;strokeColor=none;fillColor=none;align=left;verticalAlign=top;spacingLeft=4;spacingRight=4;overflow=hidden;rotatable=0;points=[[0,0.5],[1,0.5]];portConstraint=eastwest;" vertex="1" parent="auzOqSTc4CJLRQck3vAb-116">
          <mxGeometry y="78" width="190" height="26" as="geometry" />
        </mxCell>
        <mxCell id="auzOqSTc4CJLRQck3vAb-120" value="" style="endArrow=none;dashed=1;html=1;exitX=0.5;exitY=0;exitDx=0;exitDy=0;" edge="1" parent="1" source="auzOqSTc4CJLRQck3vAb-116">
          <mxGeometry width="50" height="50" relative="1" as="geometry">
            <mxPoint x="2000" y="-580" as="sourcePoint" />
            <mxPoint x="2010" y="-680" as="targetPoint" />
          </mxGeometry>
        </mxCell>
        <mxCell id="auzOqSTc4CJLRQck3vAb-121" value="" style="whiteSpace=wrap;html=1;aspect=fixed;" vertex="1" parent="1">
          <mxGeometry x="-260" y="-151" width="80" height="80" as="geometry" />
        </mxCell>
        <mxCell id="auzOqSTc4CJLRQck3vAb-122" value="Mur marqué" style="whiteSpace=wrap;html=1;aspect=fixed;" vertex="1" parent="1">
          <mxGeometry x="-340" y="-150" width="80" height="80" as="geometry" />
        </mxCell>
        <mxCell id="auzOqSTc4CJLRQck3vAb-123" value="" style="whiteSpace=wrap;html=1;aspect=fixed;" vertex="1" parent="1">
          <mxGeometry x="-260" y="-230" width="80" height="80" as="geometry" />
        </mxCell>
        <mxCell id="auzOqSTc4CJLRQck3vAb-124" value="Mur" style="whiteSpace=wrap;html=1;aspect=fixed;" vertex="1" parent="1">
          <mxGeometry x="-340" y="-230" width="80" height="80" as="geometry" />
        </mxCell>
        <mxCell id="auzOqSTc4CJLRQck3vAb-125" value="Mur" style="whiteSpace=wrap;html=1;aspect=fixed;" vertex="1" parent="1">
          <mxGeometry x="-340" y="-71" width="80" height="80" as="geometry" />
        </mxCell>
        <mxCell id="auzOqSTc4CJLRQck3vAb-126" value="" style="whiteSpace=wrap;html=1;aspect=fixed;" vertex="1" parent="1">
          <mxGeometry x="-260" y="-70" width="80" height="80" as="geometry" />
        </mxCell>
        <mxCell id="auzOqSTc4CJLRQck3vAb-127" value="" style="whiteSpace=wrap;html=1;aspect=fixed;" vertex="1" parent="1">
          <mxGeometry x="-180" y="-71" width="80" height="80" as="geometry" />
        </mxCell>
        <mxCell id="auzOqSTc4CJLRQck3vAb-128" value="" style="whiteSpace=wrap;html=1;aspect=fixed;" vertex="1" parent="1">
          <mxGeometry x="-180" y="-150" width="80" height="80" as="geometry" />
        </mxCell>
        <mxCell id="auzOqSTc4CJLRQck3vAb-129" value="" style="whiteSpace=wrap;html=1;aspect=fixed;" vertex="1" parent="1">
          <mxGeometry x="-180" y="-230" width="80" height="80" as="geometry" />
        </mxCell>
        <mxCell id="auzOqSTc4CJLRQck3vAb-130" value="Actor" style="shape=umlActor;verticalLabelPosition=bottom;verticalAlign=top;html=1;outlineConnect=0;" vertex="1" parent="1">
          <mxGeometry x="-235" y="-141" width="30" height="60" as="geometry" />
        </mxCell>
        <mxCell id="auzOqSTc4CJLRQck3vAb-131" value="" style="shape=callout;whiteSpace=wrap;html=1;perimeter=calloutPerimeter;" vertex="1" parent="1">
          <mxGeometry x="-540" y="-250" width="120" height="80" as="geometry" />
        </mxCell>
        <mxCell id="auzOqSTc4CJLRQck3vAb-132" value="" style="endArrow=none;dashed=1;html=1;exitX=0.5;exitY=0;exitDx=0;exitDy=0;entryX=0.495;entryY=1;entryDx=0;entryDy=0;entryPerimeter=0;" edge="1" parent="1" source="auzOqSTc4CJLRQck3vAb-104" target="auzOqSTc4CJLRQck3vAb-135">
          <mxGeometry width="50" height="50" relative="1" as="geometry">
            <mxPoint x="2000" y="-910" as="sourcePoint" />
            <mxPoint x="2033.67" y="-992" as="targetPoint" />
          </mxGeometry>
        </mxCell>
        <mxCell id="auzOqSTc4CJLRQck3vAb-133" value="Escaliers" style="swimlane;fontStyle=0;childLayout=stackLayout;horizontal=1;startSize=26;fillColor=none;horizontalStack=0;resizeParent=1;resizeParentMax=0;resizeLast=0;collapsible=1;marginBottom=0;" vertex="1" parent="1">
          <mxGeometry x="1940" y="-1096" width="190" height="78" as="geometry" />
        </mxCell>
        <mxCell id="auzOqSTc4CJLRQck3vAb-134" value="Passer à un autre niveau" style="text;strokeColor=none;fillColor=none;align=left;verticalAlign=top;spacingLeft=4;spacingRight=4;overflow=hidden;rotatable=0;points=[[0,0.5],[1,0.5]];portConstraint=eastwest;" vertex="1" parent="auzOqSTc4CJLRQck3vAb-133">
          <mxGeometry y="26" width="190" height="26" as="geometry" />
        </mxCell>
        <mxCell id="auzOqSTc4CJLRQck3vAb-135" value="1 seul accès par une autre case" style="text;strokeColor=none;fillColor=none;align=left;verticalAlign=top;spacingLeft=4;spacingRight=4;overflow=hidden;rotatable=0;points=[[0,0.5],[1,0.5]];portConstraint=eastwest;" vertex="1" parent="auzOqSTc4CJLRQck3vAb-133">
          <mxGeometry y="52" width="190" height="26" as="geometry" />
        </mxCell>
        <mxCell id="auzOqSTc4CJLRQck3vAb-137" value="" style="endArrow=none;dashed=1;html=1;entryX=0.493;entryY=1.038;entryDx=0;entryDy=0;entryPerimeter=0;exitX=0.5;exitY=0;exitDx=0;exitDy=0;" edge="1" parent="1" source="auzOqSTc4CJLRQck3vAb-138" target="auzOqSTc4CJLRQck3vAb-107">
          <mxGeometry width="50" height="50" relative="1" as="geometry">
            <mxPoint x="2009" y="-570" as="sourcePoint" />
            <mxPoint x="1980" y="-660" as="targetPoint" />
          </mxGeometry>
        </mxCell>
        <mxCell id="auzOqSTc4CJLRQck3vAb-138" value="Mur" style="swimlane;fontStyle=0;childLayout=stackLayout;horizontal=1;startSize=26;fillColor=none;horizontalStack=0;resizeParent=1;resizeParentMax=0;resizeLast=0;collapsible=1;marginBottom=0;" vertex="1" parent="1">
          <mxGeometry x="1650" y="-600" width="230" height="104" as="geometry" />
        </mxCell>
        <mxCell id="auzOqSTc4CJLRQck3vAb-139" value="Ne peut pas passer dessus" style="text;strokeColor=none;fillColor=none;align=left;verticalAlign=top;spacingLeft=4;spacingRight=4;overflow=hidden;rotatable=0;points=[[0,0.5],[1,0.5]];portConstraint=eastwest;" vertex="1" parent="auzOqSTc4CJLRQck3vAb-138">
          <mxGeometry y="26" width="230" height="26" as="geometry" />
        </mxCell>
        <mxCell id="auzOqSTc4CJLRQck3vAb-140" value="Possibilité t&#39;interagir en avançant dessus" style="text;strokeColor=none;fillColor=none;align=left;verticalAlign=top;spacingLeft=4;spacingRight=4;overflow=hidden;rotatable=0;points=[[0,0.5],[1,0.5]];portConstraint=eastwest;" vertex="1" parent="auzOqSTc4CJLRQck3vAb-138">
          <mxGeometry y="52" width="230" height="26" as="geometry" />
        </mxCell>
        <mxCell id="auzOqSTc4CJLRQck3vAb-141" value="Bloque la vision  au travers du fog" style="text;strokeColor=none;fillColor=none;align=left;verticalAlign=top;spacingLeft=4;spacingRight=4;overflow=hidden;rotatable=0;points=[[0,0.5],[1,0.5]];portConstraint=eastwest;" vertex="1" parent="auzOqSTc4CJLRQck3vAb-138">
          <mxGeometry y="78" width="230" height="26" as="geometry" />
        </mxCell>
        <mxCell id="auzOqSTc4CJLRQck3vAb-142" value="" style="endArrow=none;dashed=1;html=1;" edge="1" parent="1">
          <mxGeometry width="50" height="50" relative="1" as="geometry">
            <mxPoint x="2010" y="-840" as="sourcePoint" />
            <mxPoint x="1810" y="-1005" as="targetPoint" />
          </mxGeometry>
        </mxCell>
        <mxCell id="auzOqSTc4CJLRQck3vAb-143" value="Portes" style="swimlane;fontStyle=0;childLayout=stackLayout;horizontal=1;startSize=26;fillColor=none;horizontalStack=0;resizeParent=1;resizeParentMax=0;resizeLast=0;collapsible=1;marginBottom=0;" vertex="1" parent="1">
          <mxGeometry x="1680" y="-1109" width="230" height="130" as="geometry" />
        </mxCell>
        <mxCell id="auzOqSTc4CJLRQck3vAb-144" value="Verrouillée ou non" style="text;strokeColor=none;fillColor=none;align=left;verticalAlign=top;spacingLeft=4;spacingRight=4;overflow=hidden;rotatable=0;points=[[0,0.5],[1,0.5]];portConstraint=eastwest;" vertex="1" parent="auzOqSTc4CJLRQck3vAb-143">
          <mxGeometry y="26" width="230" height="26" as="geometry" />
        </mxCell>
        <mxCell id="auzOqSTc4CJLRQck3vAb-145" value="S&#39;ouvre avec clé/énigme" style="text;strokeColor=none;fillColor=none;align=left;verticalAlign=top;spacingLeft=4;spacingRight=4;overflow=hidden;rotatable=0;points=[[0,0.5],[1,0.5]];portConstraint=eastwest;" vertex="1" parent="auzOqSTc4CJLRQck3vAb-143">
          <mxGeometry y="52" width="230" height="26" as="geometry" />
        </mxCell>
        <mxCell id="auzOqSTc4CJLRQck3vAb-146" value="Si faux = hp diminué, porte verrouillée " style="text;strokeColor=none;fillColor=none;align=left;verticalAlign=top;spacingLeft=4;spacingRight=4;overflow=hidden;rotatable=0;points=[[0,0.5],[1,0.5]];portConstraint=eastwest;" vertex="1" parent="auzOqSTc4CJLRQck3vAb-143">
          <mxGeometry y="78" width="230" height="26" as="geometry" />
        </mxCell>
        <mxCell id="auzOqSTc4CJLRQck3vAb-148" value="Porte finale = termine le jeu" style="text;strokeColor=none;fillColor=none;align=left;verticalAlign=top;spacingLeft=4;spacingRight=4;overflow=hidden;rotatable=0;points=[[0,0.5],[1,0.5]];portConstraint=eastwest;" vertex="1" parent="auzOqSTc4CJLRQck3vAb-143">
          <mxGeometry y="104" width="230" height="26" as="geometry" />
        </mxCell>
        <mxCell id="auzOqSTc4CJLRQck3vAb-150" value="" style="endArrow=none;dashed=1;html=1;dashPattern=1 3;strokeWidth=2;entryX=-0.009;entryY=0.02;entryDx=0;entryDy=0;entryPerimeter=0;exitX=1.011;exitY=-0.029;exitDx=0;exitDy=0;exitPerimeter=0;" edge="1" parent="1" source="auzOqSTc4CJLRQck3vAb-91" target="auzOqSTc4CJLRQck3vAb-106">
          <mxGeometry width="50" height="50" relative="1" as="geometry">
            <mxPoint x="1830" y="-720" as="sourcePoint" />
            <mxPoint x="1880" y="-770" as="targetPoint" />
          </mxGeometry>
        </mxCell>
        <mxCell id="auzOqSTc4CJLRQck3vAb-155" value="" style="shape=note;whiteSpace=wrap;html=1;backgroundOutline=1;darkOpacity=0.05;" vertex="1" parent="1">
          <mxGeometry x="230" y="-1044" width="230" height="384" as="geometry" />
        </mxCell>
        <mxCell id="auzOqSTc4CJLRQck3vAb-156" value="&lt;h1&gt;Story&lt;/h1&gt;&lt;p&gt;-Enterrement d&#39;un membre de la famille à Ozouer-le-Voulgis.&lt;/p&gt;&lt;p&gt;-Loger dans un hôtel ancien, avec peu de personnel&lt;/p&gt;&lt;p&gt;-un cri strident te réveille dans la nuit, le personnel ne répond plus, tout le monde a disparu&lt;/p&gt;&lt;p&gt;-Tes affaires se sont envolées, tu sors de ta chambre pour les retrouver.&lt;/p&gt;&lt;p&gt;&lt;span&gt;-Tu te rends qu&#39;il y a des trucs pas nets, tu cherches donc à t&#39;enfuir de l&#39;hôtel&lt;/span&gt;&lt;/p&gt;" style="text;html=1;strokeColor=none;fillColor=none;spacing=5;spacingTop=-20;whiteSpace=wrap;overflow=hidden;rounded=0;" vertex="1" parent="1">
          <mxGeometry x="250" y="-1005" width="190" height="315" as="geometry" />
        </mxCell>
      </root>
    </mxGraphModel>
  </diagram>
</mxfile>
